<svg width="76" height="76" viewBox="0 0 76 76" fill="none" xmlns="http://www.w3.org/2000/svg">
<g clip-path="url(#clip0_16_121)">
<path fill-rule="evenodd" clip-rule="evenodd" d="M41.3568 50.8567C40.4662 51.7462 39.2589 52.2459 38.0002 52.2459C36.7414 52.2459 35.5341 51.7462 34.6435 50.8567L16.7265 32.9461C15.8358 32.055 15.3356 30.8466 15.3359 29.5867C15.3362 28.3268 15.837 27.1186 16.7281 26.228C17.6192 25.3373 18.8276 24.8371 20.0875 24.8374C21.3473 24.8377 22.5555 25.3385 23.4462 26.2296L38.0002 40.7836L52.5542 26.2296C53.4496 25.3639 54.6493 24.8845 55.8947 24.8948C57.1402 24.905 58.3318 25.404 59.2129 26.2843C60.094 27.1645 60.5941 28.3557 60.6055 29.6011C60.6169 30.8465 60.1387 32.0466 59.2738 32.9429L41.36 50.8599L41.3568 50.8567Z" fill="#797979"/>
</g>
<defs>
<clipPath id="clip0_16_121">
<rect width="76" height="76" fill="white"/>
</clipPath>
</defs>
</svg>
