<svg width="76" height="98" viewBox="0 0 76 98" fill="none" xmlns="http://www.w3.org/2000/svg">
<path d="M20.6206 0.602622C23.2899 -0.202169 26.1543 -0.0684662 28.7369 0.981474C31.3196 2.03141 33.4648 3.93425 34.8153 6.37322L35.2667 7.28212L39.3049 16.2552C40.5281 18.9793 40.9246 22.0025 40.4453 24.9498C39.966 27.8971 38.632 30.6389 36.6087 32.835L35.7974 33.6402L29.4351 39.5755C28.2883 40.6613 29.1484 44.8642 33.2964 52.05C37.0296 58.516 40.0674 61.5355 41.5619 61.7002H41.8242L42.1475 61.6392L54.6525 57.8145C56.3331 57.2991 58.1267 57.2787 59.8186 57.7558C61.5105 58.2328 63.0291 59.1872 64.1929 60.5046L64.748 61.2061L73.0257 72.6741C74.648 74.9219 75.4564 77.6552 75.3178 80.4238C75.1792 83.1924 74.1019 85.8313 72.2632 87.9058L71.519 88.6744L68.2128 91.8098C65.2439 94.6215 61.5301 96.5214 57.5128 97.2838C53.4956 98.0461 49.3439 97.6388 45.5513 96.1103C33.7478 91.3523 23.024 80.4821 13.2823 63.6095C3.52233 46.6942 -0.534173 31.9505 1.27753 19.3235C1.82576 15.5065 3.39752 11.9093 5.8259 8.91385C8.25428 5.91838 11.4486 3.63653 15.0696 2.31062L16.2469 1.92022L20.6206 0.602622Z" fill="#3873AB"/>
</svg>
