<svg width="68" height="97" viewBox="0 0 68 97" fill="none" xmlns="http://www.w3.org/2000/svg">
<path d="M34.0001 96.3333C24.5751 96.3333 16.5807 93.0515 10.0171 86.4878C3.45341 79.9241 0.16997 71.9282 0.166748 62.5V43.1666H67.8334V62.5C67.8334 71.925 64.5516 79.9209 57.9879 86.4878C51.4242 93.0547 43.4283 96.3365 34.0001 96.3333ZM0.166748 33.5C0.166748 25.0416 2.90564 17.6515 8.38341 11.3295C13.8612 5.00746 20.789 1.23907 29.1667 0.024292V33.5H0.166748ZM38.8334 33.5V0.0291261C47.2112 1.23746 54.139 5.00424 59.6167 11.3295C65.0945 17.6547 67.8334 25.0448 67.8334 33.5H38.8334Z" fill="#3873AB"/>
</svg>
