<svg width="116" height="116" viewBox="0 0 116 116" fill="none" xmlns="http://www.w3.org/2000/svg">
<path d="M58 106.333C48.575 106.333 40.5807 103.052 34.017 96.4878C27.4534 89.9242 24.1699 81.9282 24.1667 72.5V53.1667H91.8334V72.5C91.8334 81.925 88.5515 89.921 81.9878 96.4878C75.4242 103.055 67.4282 106.337 58 106.333ZM24.1667 43.5C24.1667 35.0417 26.9056 27.6515 32.3834 21.3295C37.8611 15.0075 44.7889 11.2391 53.1667 10.0244V43.5H24.1667ZM62.8334 43.5V10.0292C71.2111 11.2375 78.1389 15.0043 83.6167 21.3295C89.0945 27.6547 91.8334 35.0449 91.8334 43.5H62.8334Z" fill="white"/>
</svg>
