<svg width="122" height="122" viewBox="0 0 122 122" fill="none" xmlns="http://www.w3.org/2000/svg">
<path d="M42.6207 12.6026C45.2899 11.7978 48.1543 11.9315 50.737 12.9815C53.3197 14.0314 55.4648 15.9343 56.8154 18.3732L57.2668 19.2821L61.305 28.2552C62.5282 30.9793 62.9247 34.0025 62.4454 36.9498C61.9661 39.8971 60.6321 42.6389 58.6088 44.835L57.7975 45.6402L51.4352 51.5755C50.2884 52.6613 51.1485 56.8642 55.2965 64.05C59.0297 70.516 62.0675 73.5355 63.562 73.7002H63.8243L64.1476 73.6392L76.6526 69.8145C78.3332 69.2991 80.1267 69.2787 81.8186 69.7558C83.5105 70.2328 85.0292 71.1872 86.193 72.5046L86.7481 73.2061L95.0258 84.6741C96.6481 86.9219 97.4565 89.6552 97.3179 92.4238C97.1793 95.1924 96.102 97.8313 94.2633 99.9058L93.5191 100.674L90.2129 103.81C87.244 106.621 83.5301 108.521 79.5129 109.284C75.4956 110.046 71.3439 109.639 67.5514 108.11C55.7479 103.352 45.0241 92.4821 35.2824 75.6095C25.5224 58.6942 21.4659 43.9505 23.2776 31.3235C23.8258 27.5065 25.3976 23.9093 27.826 20.9138C30.2543 17.9184 33.4487 15.6365 37.0697 14.3106L38.247 13.9202L42.6207 12.6026Z" fill="white"/>
</svg>
